<svg width="184" height="177" viewBox="0 0 184 177" fill="none" xmlns="http://www.w3.org/2000/svg">
<g clip-path="url(#clip0_1583_261)">
<path d="M184 88.5C184 39.6231 142.81 0 92 0C41.1901 0 0 39.6231 0 88.5C0 132.673 33.6432 169.286 77.625 175.925V114.082H54.2656V88.5H77.625V69.0023C77.625 46.822 91.3603 34.5703 112.375 34.5703C122.441 34.5703 132.969 36.2988 132.969 36.2988V58.0781H121.368C109.939 58.0781 106.375 64.9002 106.375 71.8993V88.5H131.891L127.812 114.082H106.375V175.925C150.357 169.286 184 132.673 184 88.5Z" fill="#1877F2" stroke="#1877F2" stroke-width="1.26562"/>
<path d="M127.804 114.082L131.883 88.5H106.367V71.8993C106.367 64.8995 109.931 58.0781 121.36 58.0781H132.961V36.2988C132.961 36.2988 122.433 34.5703 112.367 34.5703C91.3525 34.5703 77.6172 46.822 77.6172 69.0023V88.5H54.2578V114.082H77.6172V175.925C82.3726 176.642 87.1788 177.001 91.9922 177C96.8056 177.001 101.612 176.642 106.367 175.925V114.082H127.804Z" fill="white" stroke="white" stroke-width="1.26562"/>
</g>
<defs>
<clipPath id="clip0_1583_261">
<rect width="184" height="177" fill="white"/>
</clipPath>
</defs>
</svg>
