<svg width="250" height="250" viewBox="0 0 250 250" fill="none" xmlns="http://www.w3.org/2000/svg">
<rect width="250" height="250" rx="125" fill="#1A5AFF"/>
<path fill-rule="evenodd" clip-rule="evenodd" d="M110.539 38.2958C92.1181 41.6701 76.023 50.0382 62.9714 63.0277C50.6912 75.2481 42.5901 90.1588 38.8108 107.497C37.0631 115.512 37.0631 134.253 38.8108 142.269C40.5431 150.215 43.4693 158.236 47.3491 165.674C50.5774 171.862 56.9636 181.086 58.3082 181.504C58.6765 181.619 62.3842 172.462 66.5479 161.155L74.1179 140.597L73.0091 135.917C72.1519 132.3 71.9778 129.26 72.2443 122.543C72.7097 110.791 74.6396 104.824 81.1443 95.0182C86.3868 87.1149 94.6653 80.131 103.326 76.3067C116.763 70.372 135.989 70.7404 148.595 77.1727C153.399 79.6248 160.78 85.2719 164.367 89.24L168.19 93.4695L174.782 75.7577C180.039 61.6334 181.213 57.8513 180.58 57.089C179.107 55.3162 170.174 49.5079 164.778 46.8137C157.987 43.4234 150.934 40.8757 143.685 39.1952C135.952 37.4018 118.067 36.917 110.539 38.2958ZM183.287 88.1487L175.799 108.293L176.817 113.217C178.09 119.369 178.112 130.491 176.864 136.373C174.738 146.39 169.788 155.116 161.759 162.999C155.95 168.701 149.297 172.75 141.341 175.425C134.922 177.582 122.617 178.376 115.3 177.104C104.631 175.248 92.7462 168.639 85.6435 160.61C82.8391 157.439 81.6773 156.528 81.2996 157.202C80.3401 158.914 68.6873 190.635 68.6873 191.536C68.6873 192.86 76.8306 198.592 84.1214 202.402C118.221 220.218 159.433 214.059 186.593 187.088C199.114 174.654 207.154 160.021 211.036 142.604C212.671 135.268 213.005 119.195 211.689 111.176C210.265 102.504 206.765 92.1502 202.513 84.0295C199.162 77.632 192.92 68.6748 191.503 68.2321C191.09 68.1024 187.536 76.7179 183.287 88.1487Z" fill="white"/>
</svg>
