<svg width="192" height="192" viewBox="0 0 192 192" fill="none" xmlns="http://www.w3.org/2000/svg">
<path d="M147 0H45C20.1472 0 0 20.1472 0 45V147C0 171.853 20.1472 192 45 192H147C171.853 192 192 171.853 192 147V45C192 20.1472 171.853 0 147 0Z" fill="url(#paint0_radial_1583_249)"/>
<path d="M147 0H45C20.1472 0 0 20.1472 0 45V147C0 171.853 20.1472 192 45 192H147C171.853 192 192 171.853 192 147V45C192 20.1472 171.853 0 147 0Z" fill="url(#paint1_radial_1583_249)"/>
<path d="M96.0068 21C75.6383 21 73.0815 21.0893 65.082 21.453C57.0975 21.819 51.6473 23.0827 46.8787 24.9375C41.9453 26.853 37.761 29.4157 33.5925 33.5857C29.4203 37.755 26.8575 41.9392 24.936 46.8705C23.076 51.6405 21.8107 57.093 21.4515 65.0737C21.0937 73.074 21 75.6315 21 96.0008C21 116.37 21.09 118.919 21.453 126.918C21.8205 134.902 23.0842 140.353 24.9375 145.121C26.8545 150.055 29.4173 154.239 33.5873 158.408C37.755 162.58 41.9393 165.148 46.869 167.064C51.6413 168.919 57.0922 170.182 65.0752 170.548C73.0755 170.912 75.63 171.001 95.9977 171.001C116.368 171.001 118.917 170.912 126.917 170.548C134.901 170.182 140.357 168.919 145.13 167.064C150.061 165.148 154.239 162.58 158.406 158.408C162.578 154.239 165.14 150.055 167.062 145.124C168.906 140.353 170.172 134.901 170.547 126.919C170.906 118.92 171 116.37 171 96.0008C171 75.6315 170.906 73.0755 170.547 65.0752C170.172 57.0907 168.906 51.6413 167.062 46.8728C165.14 41.9393 162.578 37.755 158.406 33.5857C154.234 29.4142 150.062 26.8515 145.125 24.9382C140.344 23.0827 134.89 21.8183 126.906 21.453C118.906 21.0893 116.359 21 95.9835 21H96.0068ZM89.2785 34.5157C91.2757 34.5127 93.504 34.5157 96.0068 34.5157C116.033 34.5157 118.406 34.5878 126.313 34.947C133.626 35.2815 137.595 36.5033 140.239 37.53C143.739 38.889 146.234 40.5142 148.858 43.14C151.483 45.765 153.107 48.2647 154.47 51.765C155.497 54.405 156.72 58.374 157.053 65.6865C157.412 73.593 157.49 75.9675 157.49 95.9835C157.49 115.999 157.412 118.375 157.053 126.28C156.719 133.593 155.497 137.562 154.47 140.203C153.111 143.703 151.483 146.195 148.858 148.819C146.233 151.444 143.741 153.068 140.239 154.428C137.598 155.459 133.626 156.678 126.313 157.013C118.407 157.372 116.033 157.45 96.0068 157.45C75.9803 157.45 73.6065 157.372 65.7007 157.013C58.3882 156.675 54.4193 155.453 51.7732 154.426C48.2737 153.067 45.7732 151.442 43.1482 148.817C40.5232 146.192 38.8988 143.699 37.536 140.197C36.5093 137.556 35.286 133.587 34.953 126.274C34.5938 118.368 34.5217 115.993 34.5217 95.9648C34.5217 75.936 34.5938 73.5742 34.953 65.6677C35.2875 58.3552 36.5093 54.3862 37.536 51.7425C38.8958 48.2422 40.5233 45.7425 43.149 43.1175C45.7748 40.4925 48.2737 38.8673 51.774 37.5052C54.4177 36.474 58.3882 35.2552 65.7007 34.9192C72.6195 34.6065 75.3008 34.5127 89.2785 34.497V34.5157ZM136.042 46.9688C131.073 46.9688 127.042 50.9963 127.042 55.9658C127.042 60.9345 131.073 64.9658 136.042 64.9658C141.011 64.9658 145.042 60.9345 145.042 55.9658C145.042 50.997 141.011 46.9657 136.042 46.9657V46.9688ZM96.0068 57.4845C74.7368 57.4845 57.4912 74.73 57.4912 96.0008C57.4912 117.272 74.7368 134.509 96.0068 134.509C117.278 134.509 134.517 117.272 134.517 96.0008C134.517 74.7308 117.276 57.4845 96.0052 57.4845H96.0068ZM96.0068 71.0003C109.813 71.0003 121.007 82.1925 121.007 96.0008C121.007 109.808 109.813 121.001 96.0068 121.001C82.2 121.001 71.007 109.808 71.007 96.0008C71.007 82.1925 82.1993 71.0003 96.0068 71.0003Z" fill="white" stroke="white" stroke-width="1.26562"/>
<defs>
<radialGradient id="paint0_radial_1583_249" cx="0" cy="0" r="1" gradientUnits="userSpaceOnUse" gradientTransform="translate(51 206.788) rotate(-90) scale(190.286 176.981)">
<stop stop-color="#FFDD55"/>
<stop offset="0.1" stop-color="#FFDD55"/>
<stop offset="0.5" stop-color="#FF543E"/>
<stop offset="1" stop-color="#C837AB"/>
</radialGradient>
<radialGradient id="paint1_radial_1583_249" cx="0" cy="0" r="1" gradientUnits="userSpaceOnUse" gradientTransform="translate(-32.1607 13.8307) rotate(78.681) scale(85.059 350.616)">
<stop stop-color="#3771C8"/>
<stop offset="0.128" stop-color="#3771C8"/>
<stop offset="1" stop-color="#6600FF" stop-opacity="0"/>
</radialGradient>
</defs>
</svg>
