<svg width="193" height="189" viewBox="0 0 193 189" fill="none" xmlns="http://www.w3.org/2000/svg">
<g clip-path="url(#clip0_1583_256)">
<path d="M0 94.5015C0 133.198 23.7616 166.441 57.7635 181.057C57.4921 174.458 57.7153 166.536 59.4432 159.357C61.2986 151.685 71.8601 107.863 71.8601 107.863C71.8601 107.863 68.7774 101.829 68.7774 92.9112C68.7774 78.9068 77.0658 68.4475 87.3883 68.4475C96.166 68.4475 100.407 74.9038 100.407 82.6351C100.407 91.2759 94.7788 104.201 91.8846 116.172C89.4668 126.197 97.0172 134.373 107.116 134.373C125.399 134.373 137.714 111.376 137.714 84.1294C137.714 63.4176 123.469 47.9152 97.5592 47.9152C68.2866 47.9152 50.0503 69.2929 50.0503 93.1718C50.0503 101.405 52.5292 107.211 56.4118 111.707C58.197 113.772 58.4451 114.603 57.799 116.974C57.3361 118.713 56.2731 122.899 55.8328 124.558C55.1905 126.951 53.2099 127.807 51.001 126.923C37.5181 121.533 31.2389 107.074 31.2389 90.8197C31.2389 63.975 54.3581 31.786 100.208 31.786C137.051 31.786 161.301 57.8945 161.301 85.9204C161.301 122.992 140.254 150.687 109.231 150.687C98.813 150.687 89.013 145.172 85.6558 138.908C85.6558 138.908 80.0535 160.681 78.8669 164.886C76.8208 172.172 72.816 179.454 69.1543 185.13C78.0335 187.701 87.2446 189.006 96.5038 189.005C149.793 189.005 193.001 146.695 193.001 94.5015C193.001 42.3102 149.793 0 96.5038 0C43.2094 0 0 42.3102 0 94.5015Z" fill="#CB1F27" stroke="#CB1F27" stroke-width="1.26562"/>
</g>
<defs>
<clipPath id="clip0_1583_256">
<rect width="193" height="189" fill="white"/>
</clipPath>
</defs>
</svg>
