<svg width="149" height="173" viewBox="0 0 149 173" fill="none" xmlns="http://www.w3.org/2000/svg">
<g clip-path="url(#clip0_1584_437)">
<path d="M109.897 112.937C128.789 101.683 143.112 93.1086 144.346 92.4424C148.296 90.1637 152.374 84.1341 144.346 79.4503C141.755 77.9778 127.8 69.6695 109.897 58.9561L85.0781 86.1462L109.897 112.937Z" fill="#FFD900"/>
<path d="M85.0812 86.1514L6.05469 172.552C7.90951 172.819 10.0039 172.286 12.4729 170.813C17.6565 167.735 72.6072 135.182 109.9 112.948L85.0812 86.1514Z" fill="#F43249"/>
<path d="M85.0712 86.1487L109.89 59.0918C109.89 59.0918 18.0212 4.70492 12.4629 1.49354C10.3685 0.147694 8.02237 -0.252063 5.92188 0.147694L85.0712 86.1487Z" fill="#00EE76"/>
<path d="M85.0762 86.1485L5.92683 0.147461C2.71467 0.953637 0 4.03177 0 10.3279V162.369C0 168.132 2.10049 172.283 6.04967 172.683L85.0762 86.1485Z" fill="#00D3FF"/>
</g>
<defs>
<clipPath id="clip0_1584_437">
<rect width="149" height="173" fill="white"/>
</clipPath>
</defs>
</svg>
