<svg width="200" height="174" viewBox="0 0 200 174" fill="none" xmlns="http://www.w3.org/2000/svg">
<g clip-path="url(#clip0_1583_258)">
<path d="M100 174C155.228 174 200 135.049 200 87C200 38.9512 155.228 0 100 0C44.7715 0 0 38.9512 0 87C0 135.049 44.7715 174 100 174Z" fill="#FF4500" stroke="#FF4500" stroke-width="1.26562"/>
<path d="M166.523 87.8292C166.523 80.7768 159.968 75.1755 151.979 75.1755C148.205 75.171 144.575 76.4345 141.846 78.7024C131.832 72.4785 118.121 68.4344 102.862 67.9158L109.537 40.7412L131.234 44.7853C131.474 49.5567 136.003 53.3949 141.608 53.3949C147.33 53.3949 151.979 49.3508 151.979 44.37C151.979 39.392 147.33 35.3472 141.608 35.3472C137.555 35.3472 133.977 37.4216 132.308 40.4299L108.108 35.9698C107.392 35.8651 106.677 35.9698 106.199 36.2811C105.603 36.5924 105.246 37.1103 105.128 37.7329L97.7344 68.0184C82.2367 68.4344 68.2875 72.4785 58.1547 78.8064C55.4255 76.5386 51.7951 75.2753 48.0211 75.2802C39.9141 75.2802 33.4766 80.9834 33.4766 87.9339C33.4766 93.1192 37.0523 97.4747 42.0609 99.4471C41.8177 100.715 41.698 101.999 41.7031 103.285C41.7031 122.782 67.8125 138.653 100.001 138.653C132.19 138.653 158.299 122.887 158.299 103.285C158.299 101.999 158.18 100.716 157.941 99.4471C162.948 97.4747 166.523 93.0146 166.523 87.8292ZM66.6188 96.8521C66.6188 91.8741 71.2672 87.8292 76.9922 87.8292C82.7141 87.8292 87.3633 91.8734 87.3633 96.8521C87.3633 101.831 82.7149 105.877 76.9922 105.877C71.268 105.979 66.6188 101.831 66.6188 96.8521ZM124.679 120.812C117.526 127.036 103.934 127.451 100.001 127.451C95.9477 127.451 82.357 126.931 75.3211 120.812C74.25 119.879 74.25 118.426 75.3211 117.493C76.3945 116.561 78.0633 116.561 79.1367 117.493C83.668 121.435 93.2055 122.782 100.001 122.782C106.796 122.782 116.452 121.434 120.863 117.493C121.937 116.561 123.605 116.561 124.679 117.493C125.632 118.426 125.632 119.879 124.679 120.812ZM122.77 105.98C117.048 105.98 112.399 101.935 112.399 96.9568C112.399 91.9781 117.048 87.9339 122.77 87.9339C128.495 87.9339 133.143 91.9781 133.143 96.9568C133.143 101.83 128.495 105.98 122.77 105.98Z" fill="white" stroke="white" stroke-width="1.26562"/>
</g>
<defs>
<clipPath id="clip0_1583_258">
<rect width="200" height="174" fill="white"/>
</clipPath>
</defs>
</svg>
