<svg width="198" height="210" viewBox="0 0 198 210" fill="none" xmlns="http://www.w3.org/2000/svg">
<g clip-path="url(#clip0_1583_271)">
<path d="M146.742 75.6156C161.188 85.2792 178.886 90.9651 197.999 90.9651V56.5469C194.382 56.5482 190.774 56.1948 187.235 55.4925V82.5847C168.123 82.5847 150.428 76.8995 135.979 67.2366V137.475C135.979 172.612 105.54 201.094 67.995 201.094C53.986 201.094 40.9647 197.131 30.1484 190.334C42.4938 202.146 59.7101 209.474 78.7564 209.474C116.304 209.474 146.744 180.992 146.744 145.853V75.6156H146.742ZM160.022 40.8917C152.639 33.344 147.791 23.5899 146.742 12.806V8.37939H136.542C139.109 22.0852 147.868 33.7945 160.022 40.8917ZM53.8955 163.371C49.7704 158.311 47.5407 152.119 47.5512 145.753C47.5512 129.683 61.4735 116.652 78.6504 116.652C81.851 116.651 85.0328 117.111 88.0838 118.016V82.828C84.5184 82.3711 80.9204 82.1763 77.324 82.248V109.636C74.2714 108.731 71.0881 108.271 67.8859 108.273C50.7098 108.273 36.7883 121.302 36.7883 137.374C36.7883 148.739 43.7467 158.578 53.8955 163.371Z" fill="#FF004F" stroke="#FF004F" stroke-width="0.931035"/>
<path d="M135.972 67.2359C150.421 76.8988 168.115 82.584 187.228 82.584V55.4918C176.559 53.365 167.115 48.1483 160.014 40.8917C147.86 33.7937 139.102 22.0844 136.535 8.37939H109.741V145.852C109.68 161.879 95.7816 174.855 78.6418 174.855C68.5425 174.855 59.5692 170.35 53.8869 163.37C43.7396 158.578 36.7804 148.738 36.7804 137.375C36.7804 121.304 50.702 108.274 67.8781 108.274C71.169 108.274 74.3408 108.754 77.3162 109.637V82.2487C40.4302 82.962 10.7656 111.166 10.7656 145.853C10.7656 163.168 18.1526 178.865 30.1421 190.335C40.9584 197.131 53.979 201.096 67.9887 201.096C105.534 201.096 135.972 172.612 135.972 137.475L135.972 67.2359Z" fill="black"/>
<path d="M187.226 55.4907V48.1668C177.605 48.1798 168.175 45.6587 160.012 40.8913C167.238 48.2936 176.752 53.3982 187.226 55.4921M136.532 8.37828C136.287 7.06873 136.1 5.75044 135.969 4.42666V0H98.9731V137.474C98.9143 153.499 85.016 166.476 67.8754 166.476C63.0162 166.482 58.2234 165.419 53.8842 163.371C59.5665 170.35 68.5398 174.854 78.6391 174.854C95.7781 174.854 109.678 161.879 109.738 145.852V8.379L136.532 8.37828ZM77.3158 82.2476V74.4493C74.2243 74.0542 71.1077 73.8563 67.9875 73.857C30.438 73.857 0 102.34 0 137.474C0 159.502 11.9625 178.914 30.141 190.333C18.1514 178.864 10.7645 163.166 10.7645 145.852C10.7645 111.165 40.4282 82.9609 77.3158 82.2476Z" fill="#00F2EA"/>
<path d="M187.226 55.4907V48.1668C177.605 48.1798 168.175 45.6587 160.012 40.8913C167.238 48.2936 176.752 53.3982 187.226 55.4921M136.532 8.37828C136.287 7.06873 136.1 5.75044 135.969 4.42666V0H98.9731V137.474C98.9143 153.499 85.016 166.476 67.8754 166.476C63.0162 166.482 58.2234 165.419 53.8842 163.371C59.5665 170.35 68.5398 174.854 78.6391 174.854C95.7781 174.854 109.678 161.879 109.738 145.852V8.379L136.532 8.37828ZM77.3158 82.2476V74.4493C74.2243 74.0542 71.1077 73.8563 67.9875 73.857C30.438 73.857 0 102.34 0 137.474C0 159.502 11.9625 178.914 30.141 190.333C18.1514 178.864 10.7645 163.166 10.7645 145.852C10.7645 111.165 40.4282 82.9609 77.3158 82.2476Z" stroke="#00F2EA" stroke-width="0.931035"/>
</g>
<defs>
<clipPath id="clip0_1583_271">
<rect width="198" height="210" fill="white"/>
</clipPath>
</defs>
</svg>
