<svg width="241" height="173" viewBox="0 0 241 173" fill="none" xmlns="http://www.w3.org/2000/svg">
<g clip-path="url(#clip0_1583_253)">
<path d="M235.677 26.9832C234.295 21.7678 231.599 17.0131 227.857 13.1925C224.115 9.37191 219.457 6.6188 214.349 5.2073C195.647 0 120.378 0 120.378 0C120.378 0 45.1048 0.157622 26.4029 5.36492C21.2943 6.77651 16.6371 9.52976 12.895 13.3505C9.15295 17.1713 6.45655 21.9262 5.07436 27.1418C-0.58255 61.0671 -2.77697 112.761 5.22969 145.33C6.61203 150.545 9.30849 155.3 13.0506 159.12C16.7926 162.941 21.4498 165.694 26.5582 167.106C45.2602 172.313 120.531 172.313 120.531 172.313C120.531 172.313 195.801 172.313 214.502 167.106C219.611 165.694 224.268 162.941 228.011 159.121C231.753 155.3 234.449 150.545 235.832 145.33C241.799 111.356 243.637 59.6937 235.677 26.9832Z" fill="#FF0000" stroke="#FF0000" stroke-width="0.9"/>
<path d="M96.4219 123.079L158.863 86.1549L96.4219 49.231V123.079Z" fill="white" stroke="white" stroke-width="0.9"/>
</g>
<defs>
<clipPath id="clip0_1583_253">
<rect width="241" height="173" fill="white"/>
</clipPath>
</defs>
</svg>
